<svg width="238" height="251" viewBox="0 0 238 251" fill="none" xmlns="http://www.w3.org/2000/svg">
<path fill-rule="evenodd" clip-rule="evenodd" d="M153.053 247.824C153.298 247.742 153.531 247.627 153.748 247.485C154.423 247.082 154.937 246.458 155.204 245.718C155.472 244.979 155.475 244.168 155.215 243.424C154.955 242.682 154.446 242.053 153.776 241.643C153.105 241.234 152.314 241.07 151.537 241.178C125.437 247.299 98.0365 244.294 73.8704 232.663C49.704 221.032 30.2209 201.471 18.6454 177.217C-9.82005 118.263 14.6093 46.7413 73.5223 18.6994C134.531 -10.3362 203.471 14.7975 231.541 73.7467C231.934 74.5605 232.634 75.1846 233.486 75.4814C234.338 75.7781 235.271 75.7234 236.081 75.329C236.894 74.9346 237.516 74.2332 237.812 73.3786C238.108 72.5242 238.053 71.587 237.66 70.773C227.396 49.5206 211.362 31.6051 191.403 19.0856C171.443 6.56626 148.368 -0.0489658 124.829 0.000272879C101.29 0.0495117 78.2426 6.76117 58.3358 19.3639C38.4287 31.9667 22.4698 49.9491 12.2936 71.2444C2.11735 92.5396 -1.86347 116.283 0.808702 139.747C3.48086 163.21 12.6976 185.441 27.3995 203.885C42.1015 222.328 61.692 236.235 83.9195 244.009C106.147 251.78 130.11 253.104 153.053 247.824ZM233.896 190.112C234.914 188.528 234.459 186.418 232.881 185.397C231.303 184.377 229.199 184.834 228.181 186.417C222.762 194.856 216.303 202.574 208.956 209.388C207.577 210.667 207.493 212.824 208.767 214.208C210.042 215.591 212.192 215.676 213.571 214.397C221.339 207.193 228.168 199.033 233.896 190.112ZM127.295 30.106C108.028 30.198 89.2186 36.0141 73.2428 46.8208C68.7955 49.8288 64.6234 53.1861 60.7599 56.851C60.3363 57.0399 59.9394 57.3086 59.5917 57.6574C59.2719 57.9783 59.0196 58.3412 58.8346 58.7286C49.7243 67.8599 42.4619 78.7569 37.5294 90.8255C30.2193 108.711 28.3541 128.369 32.1691 147.317C34.0469 156.643 37.2592 165.592 41.6657 173.901C35.224 163.782 30.6602 152.508 28.265 140.62C24.4474 121.673 26.3095 102.017 33.6162 84.1304C40.9227 66.2444 53.3465 50.9304 69.3197 40.1212C85.2929 29.3121 104.099 23.4922 123.366 23.3959C136.205 23.3609 148.926 25.8642 160.8 30.7629C172.675 35.6613 183.471 42.8591 192.573 51.9451C199.499 58.8599 205.341 66.765 209.915 75.3886C206.072 69.3514 201.572 63.7404 196.487 58.663C187.388 49.5775 176.595 42.3792 164.723 37.4793C152.85 32.5795 140.132 30.0739 127.295 30.106ZM66.0597 69.6584L59.592 63.1694C58.3945 61.9683 58.1422 60.178 58.8346 58.7286C59.4675 58.0941 60.1094 57.4682 60.7599 56.851C62.1862 56.215 63.9164 56.4839 65.086 57.6574L71.531 64.1235C70.6503 64.9289 69.7868 65.7558 68.9416 66.6042C67.9516 67.5977 66.9907 68.6162 66.0597 69.6584ZM71.348 74.9643L66.0597 69.6584C56.873 79.9415 50.5865 92.5316 47.8937 106.126C47.1307 109.979 46.6649 113.867 46.4934 117.759H37.0592C34.9135 117.759 33.1743 119.504 33.1743 121.657C33.1743 123.809 34.9135 125.554 37.0592 125.554H46.5426C47.0307 134.161 48.9552 142.671 52.2802 150.719C54.1829 155.325 56.5163 159.712 59.2368 163.827C61.1141 167.407 63.2645 170.825 65.6648 174.051L59.5904 180.145C58.0733 181.667 58.0733 184.135 59.5904 185.657C61.1075 187.179 63.5674 187.179 65.0845 185.657L70.6437 180.08C74.7703 184.59 79.4384 188.614 84.5651 192.051C95.0425 199.076 107.045 203.388 119.503 204.66V208.291C119.503 210.443 121.243 212.188 123.388 212.188C125.534 212.188 127.273 210.443 127.273 208.291V205.058H127.295V205.102C146.951 205.102 165.831 197.553 180.083 184.054L181.698 185.674C183.215 187.196 185.674 187.196 187.192 185.674C188.709 184.152 188.709 181.684 187.192 180.162L185.458 178.423C197.506 164.45 204.199 146.544 204.199 127.946C204.199 127.148 204.187 126.35 204.163 125.554H209.739C211.885 125.554 213.624 123.809 213.624 121.657C213.624 119.504 211.885 117.759 209.739 117.759H203.532C202.02 106.326 197.967 95.3353 191.623 85.6206C190.324 83.1073 188.882 80.6595 187.304 78.2894C185.287 75.261 183.067 72.3918 180.665 69.6993L187.19 63.1528C188.707 61.6307 188.707 59.1628 187.19 57.6408C185.673 56.1185 183.213 56.1187 181.696 57.6408L175.197 64.1607C168.641 58.1581 161.064 53.3073 152.777 49.864C144.623 46.4762 135.995 44.5398 127.273 44.0922V35.0446C127.273 32.892 125.534 31.1469 123.388 31.1469C121.243 31.1469 119.503 32.892 119.503 35.0446V44.0875C115.765 44.2751 112.03 44.7369 108.328 45.4761C94.5783 48.2217 81.8605 54.6799 71.531 64.1235L76.9591 69.5693C75.5755 70.7712 74.2321 72.0246 72.9318 73.3286C72.3952 73.8665 71.8674 74.4117 71.348 74.9643ZM51.0588 117.759H46.4934C46.3788 120.36 46.3954 122.961 46.5426 125.554H50.4271C50.0973 136.421 52.0592 147.284 56.2412 157.418C57.144 159.606 58.1442 161.744 59.2368 163.827C61.4223 167.134 63.8579 170.264 66.5208 173.192L65.6648 174.051C67.2214 176.144 68.8833 178.156 70.6437 180.08L72.0413 178.678C74.7308 181.093 77.5968 183.324 80.6224 185.351C92.2025 193.11 105.643 197.556 119.503 198.251V204.66C122.077 204.924 124.67 205.057 127.273 205.058V198.314C136.045 197.867 144.685 195.914 152.816 192.532C160.858 189.188 168.265 184.502 174.729 178.682L180.083 184.054C180.62 183.546 181.151 183.029 181.674 182.503C182.988 181.185 184.25 179.824 185.458 178.423L180.242 173.19C186.23 166.589 191.037 158.988 194.441 150.723C197.743 142.705 199.67 134.196 200.15 125.554H204.163C204.084 122.94 203.872 120.338 203.532 117.759H200.195C199.7 106.529 196.766 95.5625 191.623 85.6206C191.503 85.4361 191.382 85.2521 191.26 85.0685C187.828 79.9107 183.809 75.2152 179.303 71.0653L180.665 69.6993C178.934 67.7594 177.109 65.9111 175.197 64.1607L173.294 66.0699C168.219 62.269 162.668 59.092 156.755 56.6318C147.364 52.7244 137.342 50.743 127.273 50.7459V44.0922C124.688 43.9595 122.095 43.9578 119.503 44.0875V51.143C117.1 51.3886 114.703 51.7482 112.319 52.223C99.2018 54.836 87.0223 60.8284 76.9591 69.5693L79.0086 71.6256C80.5257 73.1477 80.5257 75.6156 79.0086 77.1376C77.4913 78.6597 75.0316 78.6597 73.5145 77.1376L71.348 74.9643C61.4521 85.4913 54.6952 98.6113 51.8725 112.833C51.5475 114.469 51.2765 116.112 51.0588 117.759ZM119.503 51.143C122.09 50.8785 124.683 50.7466 127.273 50.7459V54.7986C127.273 56.9511 125.534 58.6962 123.388 58.6962C121.243 58.6962 119.503 56.9511 119.503 54.7986V51.143ZM173.294 66.0699C175.38 67.6318 177.386 69.2989 179.303 71.0653L173.267 77.121C171.75 78.6431 169.291 78.6431 167.773 77.121C166.256 75.599 166.256 73.131 167.773 71.609L173.294 66.0699ZM200.195 117.759H190.05C187.904 117.759 186.165 119.504 186.165 121.657C186.165 123.809 187.904 125.554 190.05 125.554H200.15C200.232 124.096 200.271 122.634 200.27 121.169C200.27 120.03 200.245 118.893 200.195 117.759ZM180.242 173.19L173.269 166.194C171.752 164.672 169.292 164.672 167.775 166.194C166.258 167.716 166.258 170.184 167.775 171.706L174.729 178.682C175.769 177.745 176.786 176.779 177.776 175.784C178.619 174.938 179.441 174.072 180.242 173.19ZM127.273 198.314V188.537C127.273 186.384 125.534 184.639 123.388 184.639C121.243 184.639 119.503 186.384 119.503 188.537V198.251C120.788 198.315 122.076 198.348 123.366 198.347V198.414C124.67 198.414 125.973 198.381 127.273 198.314ZM72.0413 178.678L79.007 171.689C80.5242 170.167 80.5242 167.699 79.007 166.177C77.4899 164.655 75.0301 164.655 73.513 166.177L66.5208 173.192C68.2655 175.11 70.1077 176.941 72.0413 178.678ZM51.0588 117.759C50.7163 120.351 50.5059 122.953 50.4271 125.554H56.7487C58.8942 125.554 60.6336 123.809 60.6336 121.657C60.6336 119.504 58.8942 117.759 56.7487 117.759H51.0588ZM213.843 83.7158C212.663 80.875 211.351 78.0963 209.915 75.3886C212.949 80.1548 215.573 85.1867 217.752 90.4313C222.692 102.319 225.25 115.066 225.279 127.946C225.279 147.277 219.571 166.175 208.875 182.254C198.18 198.334 182.977 210.874 165.184 218.293C147.392 225.712 127.808 227.676 108.903 223.938C89.9989 220.201 72.6219 210.929 58.9651 197.292C52.0301 190.367 46.2122 182.474 41.6657 173.901C45.4906 179.909 49.9777 185.51 55.066 190.589C68.7235 204.224 86.1008 213.494 105.004 217.23C123.908 220.966 143.491 219 161.282 211.581C179.074 204.161 194.276 191.621 204.97 175.542C215.664 159.463 221.372 140.566 221.372 121.236C221.343 108.355 218.785 95.605 213.843 83.7158ZM129.282 77.2322C129.282 74.5169 127.093 72.3159 124.393 72.3159C121.692 72.3159 119.503 74.5169 119.503 77.2322V126.352C119.503 126.621 119.525 126.887 119.566 127.145C119.525 127.402 119.503 127.666 119.503 127.935C119.503 130.644 121.697 132.84 124.404 132.84H173.362C176.069 132.84 178.263 130.644 178.263 127.935C178.263 125.226 176.069 123.03 173.362 123.03H129.282V77.2322ZM129.282 123.03V126.352C129.282 129.067 127.093 131.268 124.393 131.268C121.961 131.268 119.944 129.483 119.566 127.145C119.944 124.811 121.966 123.03 124.404 123.03H129.282Z" fill="#591186"/>
</svg>
